<svg width="28" height="28" viewBox="0 0 28 28" fill="none" xmlns="http://www.w3.org/2000/svg">
<path d="M20.417 7.1009H16.8768V5.10952C16.8768 4.86613 16.6776 4.66699 16.4342 4.66699H1.60952C1.36613 4.66699 1.16699 4.86613 1.16699 5.10952V19.9342C1.16699 20.1776 1.36613 20.3768 1.60952 20.3768H3.85535C4.06556 21.6933 5.2106 22.7 6.58797 22.7C7.96534 22.7 9.10485 21.6933 9.32058 20.3768H16.4342H18.6801C18.8903 21.6933 20.0353 22.7 21.4127 22.7C22.7901 22.7 23.9296 21.6933 24.1453 20.3768H26.3911C26.6345 20.3768 26.8337 20.1776 26.8337 19.9342V13.5176C26.8337 9.97734 23.9572 7.1009 20.417 7.1009ZM25.9375 13.1304H21.6284C20.7102 13.1304 19.9579 12.3836 19.9579 11.4598V7.98596H20.417C23.3377 7.98596 25.7329 10.2594 25.9375 13.1304ZM15.9917 5.55205V15.4536H2.05205V5.55205H15.9917ZM3.85535 19.4917H2.05205V16.3387H15.9917V19.4917H9.32058C9.11038 18.1752 7.96534 17.1684 6.58797 17.1684C5.2106 17.1684 4.07109 18.1752 3.85535 19.4917ZM6.58797 21.815C5.55356 21.815 4.70722 20.9686 4.70722 19.9342C4.70722 18.8998 5.55356 18.0535 6.58797 18.0535C7.62238 18.0535 8.46872 18.8998 8.46872 19.9342C8.46872 20.9686 7.62238 21.815 6.58797 21.815ZM21.4127 21.815C20.3783 21.815 19.5319 20.9686 19.5319 19.9342C19.5319 18.8998 20.3783 18.0535 21.4127 18.0535C22.4471 18.0535 23.2934 18.8998 23.2934 19.9342C23.2934 20.9686 22.4471 21.815 21.4127 21.815ZM24.1453 19.4917C23.9351 18.1752 22.7901 17.1684 21.4127 17.1684C20.0353 17.1684 18.8958 18.1752 18.6801 19.4917H16.8768V7.98596H19.0728V11.4598C19.0728 12.8704 20.2179 14.0154 21.6284 14.0154H25.9486V19.4917H24.1453Z" fill="#3A393A"/>
</svg>