<svg width="28" height="28" viewBox="0 0 28 28" fill="none" xmlns="http://www.w3.org/2000/svg">
<path d="M4.66699 10.9899C4.66699 10.1724 4.66699 9.76361 4.81923 9.39607C4.97147 9.02853 5.2605 8.7395 5.83856 8.16143L6.99542 7.00458C7.57348 6.42652 7.86251 6.13749 8.23005 5.98525C8.59759 5.83301 9.00635 5.83301 9.82385 5.83301H18.1768C18.9943 5.83301 19.4031 5.83301 19.7706 5.98525C20.1381 6.13749 20.4272 6.42652 21.0052 7.00458L22.1621 8.16144C22.7401 8.7395 23.0292 9.02853 23.1814 9.39607C23.3337 9.76361 23.3337 10.1724 23.3337 10.9899V19.333C23.3337 21.2186 23.3337 22.1614 22.7479 22.7472C22.1621 23.333 21.2193 23.333 19.3337 23.333H8.66699C6.78137 23.333 5.83857 23.333 5.25278 22.7472C4.66699 22.1614 4.66699 21.2186 4.66699 19.333V10.9899Z" stroke="#3A393A"/>
<path d="M4.66699 11.667H23.3337" stroke="#3A393A" stroke-linecap="round"/>
<path d="M10.5 15.5859L10.1464 15.9395L9.79289 15.5859L10.1464 15.2324L10.5 15.5859ZM12.9609 21.5C12.6848 21.5 12.4609 21.2761 12.4609 21C12.4609 20.7239 12.6848 20.5 12.9609 20.5L12.9609 21.5ZM12.6074 18.4004L10.1464 15.9395L10.8536 15.2324L13.3145 17.6933L12.6074 18.4004ZM10.1464 15.2324L12.6074 12.7714L13.3145 13.4786L10.8536 15.9395L10.1464 15.2324ZM10.5 15.0859L15.668 15.0859L15.668 16.0859L10.5 16.0859L10.5 15.0859ZM15.668 21.5L12.9609 21.5L12.9609 20.5L15.668 20.5L15.668 21.5ZM18.875 18.293C18.875 20.0642 17.4392 21.5 15.668 21.5L15.668 20.5C16.8869 20.5 17.875 19.5119 17.875 18.293L18.875 18.293ZM15.668 15.0859C17.4392 15.0859 18.875 16.5218 18.875 18.293L17.875 18.293C17.875 17.0741 16.8869 16.0859 15.668 16.0859L15.668 15.0859Z" fill="#3A393A"/>
</svg>