<svg width="28" height="28" viewBox="0 0 28 28" fill="none" xmlns="http://www.w3.org/2000/svg">
<path d="M21.6716 7.41098L14.5906 4.37624C14.2132 4.21453 13.7861 4.21453 13.4088 4.37624L6.32775 7.41098C5.71332 7.6743 5.3473 8.31243 5.43021 8.97575L6.20986 15.213C6.41429 16.8484 7.23234 18.3451 8.49847 19.4002L13.0394 23.1843C13.5957 23.6478 14.4037 23.6478 14.96 23.1843L19.5009 19.4002C20.767 18.3451 21.5851 16.8484 21.7895 15.213L22.5691 8.97575C22.6521 8.31243 22.286 7.6743 21.6716 7.41098Z" stroke="#3A393A" stroke-linecap="round"/>
<path d="M10.5003 14L13.5691 17.0687C13.7922 17.2918 14.1636 17.2551 14.3386 16.9925L18.667 10.5" stroke="#3A393A" stroke-linecap="round"/>
</svg>